<?xml version="1.0" encoding="utf-8"?>

<!DOCTYPE svg PUBLIC "-//W3C//DTD SVG 1.1//EN" "http://www.w3.org/Graphics/SVG/1.1/DTD/svg11.dtd">
<!-- Uploaded to: SVG Repo, www.svgrepo.com, Generator: SVG Repo Mixer Tools -->
<svg height="800px" width="800px" version="1.1" id="_x32_" xmlns="http://www.w3.org/2000/svg" xmlns:xlink="http://www.w3.org/1999/xlink" 
	 viewBox="0 0 512 512"  xml:space="preserve">
<style type="text/css">
	.st0{fill:#F7F0F5;}
</style>
<g>
	<path class="st0" d="M56.817,269.848c4.751-4.862,9.896-9.326,15.386-13.358c-16.274-16.173-26.351-38.56-26.351-63.314
		c0-49.296,39.967-89.268,89.268-89.268c33.818,0,63.229,18.802,78.379,46.523c11.717-7.997,24.606-14.372,38.348-18.852
		l0.664-1.834c0.49-1.37,0.355-2.875-0.372-4.135c-0.723-1.251-1.965-2.122-3.39-2.384l-33.652-6.036
		c-2.025-0.372-3.61-1.953-3.978-3.982l-6.04-33.656c-0.258-1.42-1.124-2.672-2.38-3.39c-1.256-0.727-2.765-0.862-4.13-0.372
		l-32.177,11.566c-1.932,0.694-4.096,0.118-5.423-1.454l-22.091-26.09c-0.934-1.116-2.312-1.75-3.758-1.75
		c-1.446,0-2.819,0.634-3.754,1.75l-22.095,26.09c-1.327,1.573-3.488,2.148-5.419,1.463L71.679,75.798
		c-1.365-0.49-2.874-0.355-4.13,0.364c-1.255,0.727-2.126,1.97-2.384,3.39l-6.044,33.656c-0.364,2.029-1.949,3.61-3.974,3.982
		l-33.652,6.028c-1.424,0.27-2.667,1.132-3.394,2.384c-0.723,1.26-0.858,2.764-0.368,4.134l11.566,32.177
		c0.689,1.936,0.114,4.1-1.454,5.427L1.746,189.423C0.638,190.361,0,191.74,0,193.177c0,1.454,0.638,2.824,1.746,3.762l26.098,22.09
		c1.568,1.328,2.143,3.492,1.45,5.428l-11.562,32.168c-0.49,1.37-0.355,2.874,0.368,4.134c0.727,1.251,1.97,2.114,3.394,2.384
		l33.652,6.036C55.755,269.29,56.305,269.535,56.817,269.848z"/>
	<path class="st0" d="M425.175,280.314c-0.034,0-0.068,0.009-0.101,0.009c0.05-1.446,0.101-2.892,0.101-4.345
		c0-69.528-56.356-125.883-125.874-125.883c-65.114,0-118.698,49.456-125.207,112.864c-9.13-2.824-18.827-4.346-28.884-4.346
		c-53.937,0-97.662,43.725-97.662,97.664c0,53.937,43.725,97.662,97.662,97.662h279.966c47.953,0,86.825-38.863,86.825-86.807
		C512,319.178,473.128,280.314,425.175,280.314z"/>
</g>
</svg>